<svg width="90" height="122" viewBox="0 0 90 122" fill="none" xmlns="http://www.w3.org/2000/svg">
<path d="M0 45C0 20.1472 20.1472 0 45 0C69.8528 0 90 20.1472 90 45V107C90 115.284 83.2843 122 75 122H15C6.71573 122 0 115.284 0 107V45Z" fill="white"/>
<circle cx="45" cy="45" r="30" fill="#0077FF"/>
<path d="M46.4291 55C35.4959 55 29.2598 47.4925 29 35H34.4766C34.6565 44.1692 38.6939 48.0531 41.8919 48.8539V35H47.0487V42.9079C50.2067 42.5676 53.5247 38.964 54.644 35H59.8008C59.379 37.0558 58.5382 39.0024 57.3311 40.7179C56.1239 42.4334 54.5763 43.8809 52.7851 44.97C54.7845 45.9651 56.5505 47.3736 57.9666 49.1025C59.3826 50.8314 60.4165 52.8415 61 55H55.3235C54.7997 53.1252 53.7351 51.4469 52.2631 50.1755C50.7911 48.9041 48.9772 48.0961 47.0487 47.8529V55H46.4291Z" fill="white"/>
<path d="M20.679 107V105.091L26.5852 98.9716C27.2159 98.3068 27.7358 97.7244 28.1449 97.2244C28.5597 96.7187 28.8693 96.2386 29.0739 95.7841C29.2784 95.3295 29.3807 94.8466 29.3807 94.3352C29.3807 93.7557 29.2443 93.2557 28.9716 92.8352C28.6989 92.4091 28.3267 92.0824 27.8551 91.8551C27.3835 91.6222 26.8523 91.5057 26.2614 91.5057C25.6364 91.5057 25.0909 91.6335 24.625 91.8892C24.1591 92.1449 23.8011 92.5057 23.5511 92.9716C23.3011 93.4375 23.1761 93.983 23.1761 94.608H20.6619C20.6619 93.5455 20.9063 92.6165 21.3949 91.821C21.8835 91.0256 22.554 90.4091 23.4062 89.9716C24.2585 89.5284 25.2273 89.3068 26.3125 89.3068C27.4091 89.3068 28.375 89.5256 29.2102 89.9631C30.0511 90.3949 30.7074 90.9858 31.179 91.7358C31.6506 92.4801 31.8864 93.321 31.8864 94.2585C31.8864 94.9062 31.7642 95.5398 31.5199 96.1591C31.2813 96.7784 30.8636 97.4687 30.267 98.2301C29.6705 98.9858 28.8409 99.9034 27.7784 100.983L24.3097 104.614V104.741H32.1676V107H20.679ZM40.7544 107.29C39.4078 107.284 38.2573 106.929 37.3027 106.224C36.3482 105.52 35.6181 104.494 35.1124 103.148C34.6067 101.801 34.3539 100.179 34.3539 98.2812C34.3539 96.3892 34.6067 94.7727 35.1124 93.4318C35.6237 92.0909 36.3567 91.0682 37.3112 90.3636C38.2715 89.6591 39.4192 89.3068 40.7544 89.3068C42.0897 89.3068 43.2345 89.6619 44.1891 90.3722C45.1436 91.0767 45.8738 92.0994 46.3794 93.4403C46.8908 94.7756 47.1465 96.3892 47.1465 98.2812C47.1465 100.185 46.8936 101.81 46.388 103.156C45.8823 104.497 45.1522 105.523 44.1976 106.233C43.2431 106.938 42.0953 107.29 40.7544 107.29ZM40.7544 105.014C41.9362 105.014 42.8595 104.438 43.5243 103.284C44.1948 102.131 44.53 100.463 44.53 98.2812C44.53 96.8324 44.3766 95.608 44.0698 94.608C43.7686 93.6023 43.334 92.8409 42.7658 92.3239C42.2033 91.8011 41.5328 91.5398 40.7544 91.5398C39.5783 91.5398 38.655 92.1193 37.9845 93.2784C37.3141 94.4375 36.976 96.1051 36.9703 98.2812C36.9703 99.7358 37.1209 100.966 37.422 101.972C37.7289 102.972 38.1635 103.73 38.726 104.247C39.2885 104.759 39.9647 105.014 40.7544 105.014ZM63.3741 100.165H54.3656V97.9318H63.34C64.1127 97.9318 64.7519 97.804 65.2576 97.5483C65.7633 97.2869 66.1383 96.929 66.3826 96.4744C66.6269 96.0142 66.7491 95.4858 66.7491 94.8892C66.7491 94.2983 66.6269 93.7699 66.3826 93.304C66.1383 92.8381 65.7661 92.4716 65.2661 92.2045C64.7661 91.9318 64.1355 91.7955 63.3741 91.7955H59.6582V107H57.0332V89.5455H63.3741C64.698 89.5455 65.8031 89.7841 66.6894 90.2614C67.5815 90.7386 68.2491 91.3807 68.6923 92.1875C69.1411 92.9943 69.3656 93.892 69.3656 94.8807C69.3656 95.8807 69.1383 96.7812 68.6838 97.5824C68.2349 98.3778 67.5644 99.0085 66.6724 99.4744C65.786 99.9347 64.6866 100.165 63.3741 100.165ZM63.5019 101.631V103.872H54.3656V101.631H63.5019Z" fill="black"/>
</svg>
